HIERARCHY
ROOT Hips
{
	OFFSET -0.179506 -22.333345 2.821913
	CHANNELS 6 Xposition Yposition Zposition Zrotation Yrotation Xrotation 
	JOINT LeftUpLeg
	{
		OFFSET 6.951974 -9.140623 -0.681533
		CHANNELS 3 Zrotation Yrotation Xrotation
		JOINT LeftLeg
		{
			OFFSET 3.427654 -37.519855 -0.449580
			CHANNELS 3 Zrotation Yrotation Xrotation
			JOINT LeftFoot
			{
				OFFSET -1.359570 -39.796059 -4.369333
				CHANNELS 3 Zrotation Yrotation Xrotation
				JOINT LeftToe
				{
					OFFSET 2.635814 -5.579078 11.928840
					CHANNELS 3 Zrotation Yrotation Xrotation
					End Site
					{
						OFFSET 0.000000 0.000000 0.000000
					}
				}
			}
		}
	}
	JOINT RightUpLeg
	{
		OFFSET -6.767048 -9.052170 -0.431982
		CHANNELS 3 Zrotation Yrotation Xrotation
		JOINT RightLeg
		{
			OFFSET -3.829005 -38.256897 -0.885003
			CHANNELS 3 Zrotation Yrotation Xrotation
			JOINT RightFoot
			{
				OFFSET 1.577377 -39.841461 -4.231180
				CHANNELS 3 Zrotation Yrotation Xrotation
				JOINT RightToe
				{
					OFFSET -2.537174 -4.814398 12.334795
					CHANNELS 3 Zrotation Yrotation Xrotation
					End Site
					{
						OFFSET 0.000000 0.000000 0.000000
					}
				}
			}
		}
	}
	JOINT Spine
	{
		OFFSET -0.253288 10.896323 -2.669631
		CHANNELS 3 Zrotation Yrotation Xrotation
		JOINT Spine1
		{
			OFFSET 0.548704 13.518043 0.109247
			CHANNELS 3 Zrotation Yrotation Xrotation
			JOINT Spine2
			{
				OFFSET 0.145701 5.292222 2.542457
				CHANNELS 3 Zrotation Yrotation Xrotation
				JOINT Neck
				{
					OFFSET -0.277840 21.387037 -4.285703
					CHANNELS 3 Zrotation Yrotation Xrotation
					JOINT Head
					{
						OFFSET 0.515184 6.496960 5.134897
						CHANNELS 3 Zrotation Yrotation Xrotation
						End Site
						{
							OFFSET 0.000000 0.000000 0.000000
						}
					}
				}
				JOINT LeftShoulder
				{
					OFFSET 7.884473 12.174932 -3.408961
					CHANNELS 3 Zrotation Yrotation Xrotation
					JOINT LeftArm
					{
						OFFSET 9.097692 3.046888 -0.886815
						CHANNELS 3 Zrotation Yrotation Xrotation
						JOINT LeftForeArm
						{
							OFFSET 25.961220 -1.277207 -2.745643
							CHANNELS 3 Zrotation Yrotation Xrotation
							JOINT LeftHand
							{
								OFFSET 24.923361 0.898606 -0.117091
								CHANNELS 3 Zrotation Yrotation Xrotation
								End Site
								{
									OFFSET 0.000000 0.000000 0.000000
								}
							}
						}
					}
				}
				JOINT RightShoulder
				{
					OFFSET -8.175920 11.883285 -3.861528
					CHANNELS 3 Zrotation Yrotation Xrotation
					JOINT RightArm
					{
						OFFSET -9.601238 3.255117 -0.914307
						CHANNELS 3 Zrotation Yrotation Xrotation
						JOINT RightForeArm
						{
							OFFSET -25.374195 -1.332924 -2.140099
							CHANNELS 3 Zrotation Yrotation Xrotation
							JOINT RightHand
							{
								OFFSET -25.529810 0.777228 -0.555919
								CHANNELS 3 Zrotation Yrotation Xrotation
								End Site
								{
									OFFSET 0.000000 0.000000 0.000000
								}
							}
						}
					}
				}
			}
		}
	}
}
MOTION
Frames: 10
Frame Time: 0.033333
54.562248 106.462692 11.110299 6.896980 -69.132027 -9.312440 4.161518 0.817456 0.054696 -4.790131 -3.954131 24.779307 -7.392195 5.850653 -8.755990 3.273549 0.999411 0.704488 5.529992 -2.087316 -18.334924 0.342483 -18.741590 25.671503 1.345021 -13.335448 -2.734303 4.149789 -1.485831 1.271955 -3.941150 -1.576973 4.084861 0.920382 -8.809999 4.820424 -1.505617 -3.694339 -4.987487 -6.056507 -5.692404 -2.003028 5.413019 3.360211 -2.013286 -8.320897 -15.069568 -2.471144 -61.421286 -34.441000 24.303303 6.402344 -71.164368 12.696833 -4.366579 -14.878650 0.631950 8.976501 -1.018561 3.368982 33.965134 -14.543172 17.750468 15.591666 39.151838 30.008668 19.419286 5.354633 4.608281 
57.397663 106.347534 10.804691 6.036851 -65.307351 -8.606076 4.263991 2.676718 3.715904 -5.005605 -6.600531 17.330061 -7.656452 4.147514 -10.421816 3.894571 1.070581 0.396411 3.251612 -1.617905 -24.977651 0.017701 -20.393421 35.017989 1.656334 -11.923573 -2.789850 4.582902 -1.316689 1.270087 -3.854559 -3.427131 5.715846 1.316887 -10.239292 4.228688 -1.501085 -4.485678 -4.554759 -6.193260 -5.453072 -3.027801 5.262386 2.429301 -3.115356 -7.431074 -18.351010 -2.633904 -64.528146 -36.432067 27.291701 -4.215074 -69.506400 24.562130 -6.600501 -15.694567 1.350218 8.259837 -0.928732 2.593431 32.477160 -15.281965 17.987125 17.364240 41.272004 31.372019 19.052266 6.215726 4.732639 
59.869183 105.889343 10.555052 5.133428 -62.889298 -8.257032 4.347724 3.889215 6.610927 -5.038586 -9.244997 11.724070 -7.046760 3.029410 -13.213114 4.918561 1.028350 -0.020910 1.060400 -1.524571 -30.791668 -0.412989 -21.346102 45.059406 1.896838 -10.005488 -3.328978 4.944639 -1.009548 1.207857 -3.884777 -4.959634 7.648891 1.776836 -11.314409 3.870892 -1.653076 -5.193823 -4.178449 -5.802211 -4.943641 -3.738395 4.986000 1.255620 -3.766029 -6.439098 -20.985777 -2.892925 -66.008303 -38.631598 28.855593 -11.456584 -68.106939 32.434941 -7.985017 -16.071317 1.591141 7.764020 -1.044200 2.051305 30.872722 -15.529061 17.926641 18.857238 42.991539 33.088050 18.317679 6.636207 5.723176 
61.819138 105.244164 10.451101 5.575263 -61.508167 -9.452262 4.398081 4.798012 8.397964 -5.322079 -10.717741 9.538275 -6.369780 2.074703 -15.638764 5.812408 0.861404 -0.473345 -0.313433 -1.607896 -34.301035 -0.609734 -21.640168 51.500513 1.742870 -9.173121 -3.119569 5.533891 -0.797556 1.138141 -3.905368 -6.030213 8.657241 1.867045 -12.115979 4.185715 -1.858548 -5.723635 -4.012980 -5.784932 -4.465918 -3.981621 4.666823 0.932125 -4.373126 -5.604042 -22.733346 -2.982772 -66.763389 -40.015815 29.517527 -15.580919 -66.740536 37.279355 -9.028465 -15.983987 2.167438 7.225103 -1.263898 1.797169 30.021850 -16.061938 17.686227 19.530010 44.007084 33.904214 18.636573 6.917901 6.329418 
63.362228 104.594292 10.453271 5.454191 -61.874262 -10.432895 4.267389 5.200538 9.292585 -5.661874 -11.248318 9.137348 -5.396561 2.320605 -17.531907 6.245851 0.769390 -0.742285 -0.969286 -1.227923 -35.993205 -0.457848 -21.041841 54.714324 1.757884 -8.317776 -2.965387 6.017518 -0.700159 1.054701 -3.942358 -6.589555 9.275570 2.036518 -12.495190 4.429977 -2.005541 -5.883607 -3.760790 -5.757365 -3.763464 -4.047918 4.522854 1.311581 -4.909459 -5.098213 -23.581965 -3.288352 -66.670302 -40.941061 29.570852 -18.703335 -65.858903 40.844514 -9.719687 -15.671878 2.442156 7.034203 -1.385244 1.567348 29.073275 -16.035164 17.786215 20.537053 44.911072 35.346763 19.182299 6.654702 7.080240 
64.446869 104.044861 10.549020 6.600481 -63.285198 -12.878557 3.521026 4.919924 9.174189 -6.304845 -10.951881 11.464200 -4.398144 2.811722 -19.360049 6.542530 0.613489 -1.020592 -1.171434 -0.244196 -35.802503 -0.062531 -19.322358 55.404558 1.617247 -8.301680 -3.008139 6.307362 -0.604474 0.946804 -4.113063 -6.749482 9.058761 2.111745 -12.675543 4.765915 -2.105773 -5.881911 -3.623464 -5.797778 -2.647328 -3.922865 4.220027 2.647411 -5.027155 -4.950383 -23.699451 -3.374991 -65.828930 -41.414887 29.438624 -21.360896 -65.230390 43.505057 -9.511099 -15.353636 2.564367 6.987298 -1.531622 1.453239 28.166478 -15.550947 18.428899 21.646251 45.421867 37.068662 18.976882 6.550245 7.856272 
65.342323 103.744118 9.951116 7.479992 -65.837994 -14.526653 2.991998 4.318502 7.951925 -6.575015 -9.713516 14.715330 -3.734496 3.996811 -20.592303 6.455823 0.506975 -1.092558 -0.426418 0.779684 -34.013210 0.620596 -17.548174 52.722157 1.890253 -8.298022 -3.201230 6.313991 -0.531361 0.953783 -4.083841 -6.489431 8.113045 2.107395 -12.663574 5.066329 -2.050250 -5.828528 -3.606581 -6.002435 -1.446446 -3.511426 3.725373 4.369390 -4.832585 -4.437377 -23.463350 -3.867068 -65.298569 -41.359760 29.514400 -23.404894 -64.550431 45.672831 -8.874121 -15.212598 2.488819 6.854453 -1.643736 1.183265 27.574789 -14.687900 19.531590 22.995981 45.715635 38.831324 18.461182 6.425127 8.088280 
65.846390 103.666916 9.408054 8.726174 -69.674666 -16.164565 2.541615 3.342137 5.868689 -7.060233 -8.439412 19.614068 -3.403056 5.501586 -20.745599 6.333378 0.400289 -1.224237 0.909409 1.805553 -31.551955 1.484413 -15.590130 48.477311 2.377553 -8.025309 -3.421002 6.244075 -0.472454 1.008746 -3.900789 -5.963891 7.427868 2.211198 -12.426514 4.996371 -1.850728 -5.570932 -3.374809 -6.184069 0.297652 -3.295773 3.099182 6.436528 -4.662073 -3.622368 -23.025806 -4.706391 -63.904331 -40.652485 28.719801 -25.320852 -64.200438 48.055656 -7.904155 -15.005011 3.100612 6.814185 -1.619382 0.582474 26.643786 -13.274905 20.518849 24.358359 47.048263 41.450867 17.938925 6.044174 8.785343 
65.712128 103.896194 9.627122 10.275207 -74.874561 -17.963577 2.342330 2.588161 3.411294 -7.897792 -6.832909 25.745191 -3.797644 6.719611 -18.805878 6.142386 0.295834 -1.313901 2.682369 2.774326 -28.402294 1.945974 -13.325615 43.164252 2.582479 -7.677171 -4.187761 6.002081 -0.437746 1.070835 -3.175863 -5.353972 6.488352 2.175360 -12.109491 4.978911 -1.453330 -5.276815 -3.371854 -6.632336 2.245054 -2.973523 2.570387 9.306011 -4.463679 -3.097252 -22.433383 -5.236019 -61.607640 -39.366807 27.047426 -25.333889 -63.961151 48.530280 -7.375903 -14.557626 4.029922 6.479705 -1.043917 0.259717 25.559626 -11.394097 20.940307 26.688064 49.114764 45.100536 17.644767 5.788100 9.134142 
65.479027 104.481842 9.766445 13.875433 -81.189957 -21.466271 2.277764 1.826729 1.193042 -8.356055 -5.756881 30.448123 -4.719188 7.497221 -15.204733 5.659052 0.245831 -1.092924 4.292668 3.625821 -25.432725 2.371310 -10.879206 36.856324 3.112463 -6.871404 -4.294666 5.950864 -0.553232 1.214560 -2.471559 -4.624521 5.580596 2.157090 -11.535430 4.795856 -1.015377 -4.750931 -3.544690 -7.181504 4.319681 -2.481210 2.043921 12.148181 -4.265396 -2.333151 -21.926497 -5.702187 -58.556653 -37.857149 24.594552 -24.315088 -62.453191 47.904626 -7.137719 -14.329059 5.372257 5.847795 -0.078056 -0.148377 25.175164 -8.944717 20.756128 28.798489 51.576471 48.442147 16.448466 5.786973 9.234742 
